# Blender v2.93.6 OBJ File: ''
# www.blender.org
mtllib export.mtl
o road_straight_1
v -0.000275 0.000000 -0.060000
v -0.002294 0.000000 -0.499995
v -3.078233 0.000000 -0.485885
v -3.075664 0.000000 0.074109
v 0.000275 0.000000 0.059999
v -3.076215 0.000000 -0.045890
v -3.059013 0.000000 3.704071
v 0.016926 0.000000 3.689961
v -3.058462 0.000000 3.824069
v -3.056444 0.000000 4.264064
v 0.019495 0.000000 4.249954
v 0.017477 0.000000 3.809959
vn 0.0000 1.0000 0.0000
usemtl road_asphalt
s off
f 6//1 1//1 2//1 3//1
f 7//1 8//1 5//1 4//1
f 10//1 11//1 12//1 9//1
usemtl road_mark
f 4//1 5//1 1//1 6//1
f 9//1 12//1 8//1 7//1
o road_straight_2
v 99.997620 0.000000 -0.518710
v 99.995598 0.000000 -0.958706
v -0.002294 0.000000 -0.499995
v 0.000275 0.000000 0.059999
v 99.998169 0.000000 -0.398712
v -0.000275 0.000000 -0.059999
v 0.016927 0.000000 3.689961
v 100.014824 0.000000 3.231250
v 0.017477 0.000000 3.809959
v 0.019495 0.000000 4.249955
v 100.017387 0.000000 3.791244
v 100.015373 0.000000 3.351249
vn 0.0000 1.0000 0.0000
usemtl road_asphalt
s off
f 18//2 13//2 14//2 15//2
f 19//2 20//2 17//2 16//2
f 22//2 23//2 24//2 21//2
usemtl road_mark
f 16//2 17//2 13//2 18//2
f 21//2 24//2 20//2 19//2
o road_straight_3
v 99.995598 0.000000 -0.958706
v 199.996552 0.000000 -0.977426
v 299.995483 0.000000 -1.436142
v 299.993469 0.000000 -1.876137
v 199.994537 0.000000 -1.417421
v 348.711853 0.000000 -1.659614
v 348.709839 0.000000 -2.099609
v 99.998169 0.000000 -0.398712
v 99.997620 0.000000 -0.518710
v 299.996033 0.000000 -1.316143
v 348.712402 0.000000 -1.539615
v 199.997101 0.000000 -0.857427
v 348.729065 0.000000 2.090347
v 200.013763 0.000000 2.772534
v 100.014824 0.000000 3.231250
v 200.014313 0.000000 2.892533
v 300.013245 0.000000 2.433817
v 300.012695 0.000000 2.313819
v 100.017387 0.000000 3.791244
v 100.015373 0.000000 3.351249
v 200.016327 0.000000 3.332528
v 300.015259 0.000000 2.873812
v 348.731628 0.000000 2.650340
v 348.729614 0.000000 2.210345
vn 0.0000 1.0000 0.0000
usemtl road_asphalt
s off
f 33//3 26//3 29//3 25//3
f 26//3 27//3 28//3 29//3
f 27//3 30//3 31//3 28//3
f 39//3 38//3 36//3 32//3
f 38//3 42//3 34//3 36//3
f 42//3 37//3 35//3 34//3
f 43//3 45//3 40//3 44//3
f 45//3 46//3 41//3 40//3
f 46//3 47//3 48//3 41//3
usemtl road_mark
f 32//3 36//3 26//3 33//3
f 36//3 34//3 27//3 26//3
f 34//3 35//3 30//3 27//3
f 44//3 40//3 38//3 39//3
f 40//3 41//3 42//3 38//3
f 41//3 48//3 37//3 42//3
