# Blender v3.0.0 OBJ File: ''
# www.blender.org
mtllib 0_Car.mtl
o 0_Car.001_0_Car
v -2.200000 0.000000 1.000000
v 2.200000 0.000000 1.000000
v 2.200000 0.500000 1.000000
v 1.900000 0.800000 1.000000
v 1.100000 0.850000 1.000000
v 0.100000 1.600000 1.000000
v -1.600000 1.580000 1.000000
v -2.200000 0.900000 1.000000
v -2.200000 0.000000 -1.000000
v 2.200000 0.000000 -1.000000
v 2.200000 0.500000 -1.000000
v 1.900000 0.800000 -1.000000
v 1.100000 0.850000 -1.000000
v 0.100000 1.600000 -1.000000
v -1.600000 1.580000 -1.000000
v -2.200000 0.900000 -1.000000
vn 0.0000 0.0000 1.0000
vn 0.0000 0.0000 -1.0000
vn -1.0000 0.0000 0.0000
vn -0.7498 0.6616 0.0000
vn -0.0118 0.9999 0.0000
vn 0.6000 0.8000 0.0000
vn 0.0624 0.9981 0.0000
vn 0.7071 0.7071 0.0000
vn 1.0000 0.0000 0.0000
vn 0.0000 -1.0000 0.0000
usemtl vehicle_paint_0.90_0.10_0.10
s off
f 1//1 2//1 3//1 4//1 5//1 6//1 7//1 8//1 1//1
f 16//2 15//2 14//2 13//2 12//2 11//2 10//2 9//2 16//2
f 1//3 8//3 16//3 9//3
f 8//4 7//4 15//4 16//4
f 7//5 6//5 14//5 15//5
f 6//6 5//6 13//6 14//6
f 5//7 4//7 12//7 13//7
f 4//8 3//8 11//8 12//8
f 3//9 2//9 10//9 11//9
f 9//10 10//10 2//10 1//10
