# Blender v2.93.6 OBJ File: ''
# www.blender.org
mtllib export.mtl
o road_straight_4
v -4.336133 0.000000 -99.070061
v -4.576074 0.000000 0.929649
v -4.196134 0.000000 -99.069725
v -4.096194 0.000000 -199.069763
v -3.809975 0.000000 -260.009186
v -3.949975 0.000000 -260.009521
v -4.316074 0.000000 0.930273
v -4.076134 0.000000 -99.069435
v -4.436074 0.000000 0.929985
v -3.956194 0.000000 -199.069427
v -0.686085 0.000000 0.938983
v -0.672888 0.000000 -4.561001
v -0.665690 0.000000 -7.560992
v -0.658491 0.000000 -10.560985
v -0.629699 0.000000 -22.560949
v -0.615302 0.000000 -28.560932
v -0.600906 0.000000 -34.560917
v -0.579311 0.000000 -43.560894
v -0.572113 0.000000 -46.560883
v -0.564915 0.000000 -49.560875
v -0.557717 0.000000 -52.560867
v -0.550519 0.000000 -55.560860
v -0.543320 0.000000 -58.560848
v -0.514527 0.000000 -70.560814
v -0.456942 0.000000 -94.560745
v -0.435347 0.000000 -103.560722
v -0.406555 0.000000 -115.560684
v -0.392158 0.000000 -121.560669
v -0.363365 0.000000 -133.560623
v -0.356167 0.000000 -136.560608
v -0.312978 0.000000 -154.560562
v -0.291383 0.000000 -163.560532
v -0.284185 0.000000 -166.560532
v -0.212203 0.000000 -196.560440
v -0.206205 0.000000 -199.060425
v -0.197807 0.000000 -202.560425
v -0.097032 0.000000 -244.560303
v -0.089834 0.000000 -247.560287
v -3.689976 0.000000 -260.008881
v -3.836195 0.000000 -199.069138
v -0.680086 0.000000 -1.561010
v -0.651293 0.000000 -13.560975
v -0.636897 0.000000 -19.560957
v -0.644095 0.000000 -16.560966
v -0.622500 0.000000 -25.560940
v -0.488104 0.000000 -31.560637
v -0.608104 0.000000 -31.560926
v -0.593708 0.000000 -37.560909
v -0.466510 0.000000 -40.560612
v -0.586509 0.000000 -40.560902
v -0.459312 0.000000 -43.560604
v -0.444915 0.000000 -49.560585
v -0.437717 0.000000 -52.560577
v -0.430519 0.000000 -55.560570
v -0.423321 0.000000 -58.560558
v -0.416122 0.000000 -61.560551
v -0.408924 0.000000 -64.560539
v -0.536122 0.000000 -61.560841
v -0.521726 0.000000 -67.560822
v -0.528924 0.000000 -64.560829
v -0.394528 0.000000 -70.560524
v -0.387330 0.000000 -73.560516
v -0.380131 0.000000 -76.560509
v -0.500131 0.000000 -76.560799
v -0.507329 0.000000 -73.560806
v -0.372933 0.000000 -79.560501
v -0.492933 0.000000 -79.560791
v -0.365735 0.000000 -82.560493
v -0.358537 0.000000 -85.560486
v -0.478537 0.000000 -85.560776
v -0.485735 0.000000 -82.560783
v -0.351339 0.000000 -88.560471
v -0.471338 0.000000 -88.560760
v -0.344140 0.000000 -91.560463
v -0.464140 0.000000 -91.560753
v -0.336942 0.000000 -94.560455
v -0.329744 0.000000 -97.560448
v -0.326145 0.000000 -99.060440
v -0.322546 0.000000 -100.560440
v -0.442546 0.000000 -100.560730
v -0.446145 0.000000 -99.060730
v -0.449744 0.000000 -97.560738
v -0.315348 0.000000 -103.560432
v -0.308150 0.000000 -106.560425
v -0.300951 0.000000 -109.560417
v -0.420951 0.000000 -109.560707
v -0.428149 0.000000 -106.560715
v -0.293753 0.000000 -112.560402
v -0.286555 0.000000 -115.560394
v -0.413753 0.000000 -112.560692
v -0.272159 0.000000 -121.560379
v -0.399356 0.000000 -118.560677
v -0.264960 0.000000 -124.560371
v -0.377762 0.000000 -127.560646
v -0.384960 0.000000 -124.560661
v -0.257762 0.000000 -127.560371
v -0.243366 0.000000 -133.560349
v -0.370564 0.000000 -130.560623
v -0.228969 0.000000 -139.560333
v -0.348969 0.000000 -139.560608
v -0.341771 0.000000 -142.560593
v -0.214573 0.000000 -145.560318
v -0.334573 0.000000 -145.560593
v -0.327374 0.000000 -148.560577
v -0.207375 0.000000 -148.560303
v -0.320176 0.000000 -151.560562
v -0.305780 0.000000 -157.560547
v -0.178582 0.000000 -160.560272
v -0.171384 0.000000 -163.560257
v -0.298582 0.000000 -160.560547
v -0.164186 0.000000 -166.560257
v -0.156987 0.000000 -169.560242
v -0.269789 0.000000 -172.560501
v -0.276987 0.000000 -169.560516
v -0.149789 0.000000 -172.560226
v -0.262591 0.000000 -175.560501
v -0.255392 0.000000 -178.560486
v -0.135393 0.000000 -178.560211
v -0.128195 0.000000 -181.560211
v -0.240996 0.000000 -184.560471
v -0.248194 0.000000 -181.560486
v -0.120996 0.000000 -184.560196
v -0.113798 0.000000 -187.560196
v -0.233798 0.000000 -187.560471
v -0.106600 0.000000 -190.560181
v -0.219402 0.000000 -193.560455
v -0.226600 0.000000 -190.560455
v -0.092204 0.000000 -196.560165
v -0.205005 0.000000 -199.560425
v -0.085005 0.000000 -199.560150
v -0.077807 0.000000 -202.560150
v -0.070609 0.000000 -205.560135
v -0.183411 0.000000 -208.560410
v -0.190609 0.000000 -205.560410
v -0.049015 0.000000 -214.560120
v -0.176212 0.000000 -211.560394
v -0.169014 0.000000 -214.560394
v -0.154618 0.000000 -220.560364
v -0.161816 0.000000 -217.560379
v -0.147420 0.000000 -223.560364
v -0.020222 0.000000 -226.560074
v -0.133023 0.000000 -229.560349
v -0.140221 0.000000 -226.560349
v -0.125825 0.000000 -232.560333
v -0.118627 0.000000 -235.560333
v 0.001373 0.000000 -235.560059
v 0.008571 0.000000 -238.560043
v -0.104230 0.000000 -241.560318
v -0.111429 0.000000 -238.560318
v 0.015769 0.000000 -241.560043
v 0.022967 0.000000 -244.560028
v 0.030166 0.000000 -247.560013
v -0.082636 0.000000 -250.560287
v -0.075438 0.000000 -253.560272
v 0.051760 0.000000 -256.559998
v -0.061041 0.000000 -259.560303
v -0.068239 0.000000 -256.560303
v -0.059986 0.000000 -260.000183
v 0.053854 0.000000 -99.059532
v -0.401726 0.000000 -67.560532
v -0.452113 0.000000 -46.560593
v -0.473708 0.000000 -37.560619
v -0.480906 0.000000 -34.560627
v -0.495303 0.000000 -28.560646
v -0.502501 0.000000 -25.560654
v -0.509699 0.000000 -22.560663
v -0.516897 0.000000 -19.560671
v -0.524095 0.000000 -16.560680
v -0.531294 0.000000 -13.560687
v -0.538492 0.000000 -10.560697
v -0.545690 0.000000 -7.560704
v -0.552888 0.000000 -4.560713
v -0.560086 0.000000 -1.560722
v -0.566085 0.000000 0.939271
v -0.086205 0.000000 -199.060150
v -0.099402 0.000000 -193.560181
v -0.142591 0.000000 -175.560226
v -0.185780 0.000000 -157.560272
v -0.192978 0.000000 -154.560287
v -0.200177 0.000000 -151.560287
v -0.221771 0.000000 -142.560318
v -0.236168 0.000000 -136.560333
v -0.250564 0.000000 -130.560349
v -0.279357 0.000000 -118.560387
v 0.293794 0.000000 -199.059235
v 0.060014 0.000000 -259.999878
v 0.058958 0.000000 -259.559998
v 0.044562 0.000000 -253.559998
v 0.037364 0.000000 -250.560013
v -0.005825 0.000000 -232.560059
v -0.013023 0.000000 -229.560074
v -0.027420 0.000000 -223.560089
v -0.034618 0.000000 -220.560089
v -0.041816 0.000000 -217.560104
v -0.056213 0.000000 -211.560120
v -0.063411 0.000000 -208.560135
v 0.173854 0.000000 -99.059242
v -0.186086 0.000000 0.940183
v 0.413793 0.000000 -199.058945
v 0.560012 0.000000 -259.998688
v 0.440013 0.000000 -259.998962
v 0.073913 0.000000 0.940807
v -0.066086 0.000000 0.940471
v 0.313853 0.000000 -99.058907
v 0.553793 0.000000 -199.058609
v 0.700012 0.000000 -259.998352
vn 0.0000 1.0000 0.0000
usemtl road_asphalt
s off
f 9//1 3//1 1//1 2//1
f 3//1 10//1 4//1 1//1
f 10//1 5//1 6//1 4//1
f 11//1 41//1 12//1 13//1 14//1 42//1 44//1 43//1 15//1 45//1 16//1 47//1 17//1 48//1 50//1 18//1 19//1 20//1 21//1 22//1 23//1 58//1 60//1 59//1 24//1 65//1 64//1 67//1 71//1 70//1 73//1 75//1 25//1 82//1 81//1 8//1 7//1
f 81//1 80//1 26//1 87//1 86//1 90//1 27//1 92//1 28//1 95//1 94//1 98//1 29//1 30//1 100//1 101//1 103//1 104//1 106//1 31//1 107//1 110//1 32//1 33//1 114//1 113//1 116//1 117//1 121//1 120//1 124//1 127//1 126//1 34//1 35//1 40//1 8//1
f 35//1 129//1 36//1 134//1 133//1 136//1 137//1 139//1 138//1 140//1 143//1 142//1 144//1 145//1 149//1 148//1 37//1 38//1 153//1 154//1 157//1 156//1 158//1 39//1 40//1
f 173//1 172//1 12//1 41//1
f 171//1 170//1 14//1 13//1
f 169//1 168//1 44//1 42//1
f 167//1 166//1 15//1 43//1
f 165//1 164//1 16//1 45//1
f 46//1 163//1 17//1 47//1
f 162//1 49//1 50//1 48//1
f 51//1 161//1 19//1 18//1
f 52//1 53//1 21//1 20//1
f 54//1 55//1 23//1 22//1
f 56//1 57//1 60//1 58//1
f 160//1 61//1 24//1 59//1
f 62//1 63//1 64//1 65//1
f 66//1 68//1 71//1 67//1
f 69//1 72//1 73//1 70//1
f 74//1 76//1 25//1 75//1
f 77//1 78//1 79//1 80//1 81//1 82//1
f 83//1 84//1 87//1 26//1
f 85//1 88//1 90//1 86//1
f 89//1 184//1 92//1 27//1
f 91//1 93//1 95//1 28//1
f 96//1 183//1 98//1 94//1
f 97//1 182//1 30//1 29//1
f 99//1 181//1 101//1 100//1
f 102//1 105//1 104//1 103//1
f 180//1 179//1 31//1 106//1
f 178//1 108//1 110//1 107//1
f 109//1 111//1 33//1 32//1
f 112//1 115//1 113//1 114//1
f 177//1 118//1 117//1 116//1
f 119//1 122//1 120//1 121//1
f 123//1 125//1 127//1 124//1
f 176//1 128//1 34//1 126//1
f 130//1 131//1 36//1 129//1
f 132//1 196//1 133//1 134//1
f 195//1 135//1 137//1 136//1
f 194//1 193//1 138//1 139//1
f 192//1 141//1 143//1 140//1
f 191//1 190//1 144//1 142//1
f 146//1 147//1 149//1 145//1
f 150//1 151//1 37//1 148//1
f 152//1 189//1 153//1 38//1
f 188//1 155//1 157//1 154//1
f 187//1 186//1 158//1 156//1
f 198//1 159//1 78//1 77//1 76//1 74//1 72//1 69//1 68//1 66//1 63//1 62//1 61//1 160//1 57//1 56//1 55//1 54//1 53//1 52//1 161//1 51//1 49//1 162//1 163//1 46//1 164//1 165//1 166//1 167//1 168//1 169//1 170//1 171//1 172//1 173//1 174//1
f 159//1 185//1 175//1 128//1 176//1 125//1 123//1 122//1 119//1 118//1 177//1 115//1 112//1 111//1 109//1 108//1 178//1 179//1 180//1 105//1 102//1 181//1 99//1 182//1 97//1 183//1 96//1 93//1 91//1 184//1 89//1 88//1 85//1 84//1 83//1 79//1 78//1
f 185//1 201//1 186//1 187//1 155//1 188//1 189//1 152//1 151//1 150//1 147//1 146//1 190//1 191//1 141//1 192//1 193//1 194//1 135//1 195//1 196//1 132//1 131//1 130//1 175//1
f 202//1 204//1 197//1 203//1
f 204//1 205//1 199//1 197//1
f 205//1 206//1 200//1 199//1
usemtl road_mark
f 7//1 8//1 3//1 9//1
f 8//1 40//1 10//1 3//1
f 40//1 39//1 5//1 10//1
f 174//1 173//1 41//1 11//1
f 172//1 171//1 13//1 12//1
f 170//1 169//1 42//1 14//1
f 168//1 167//1 43//1 44//1
f 166//1 165//1 45//1 15//1
f 164//1 46//1 47//1 16//1
f 163//1 162//1 48//1 17//1
f 49//1 51//1 18//1 50//1
f 161//1 52//1 20//1 19//1
f 53//1 54//1 22//1 21//1
f 55//1 56//1 58//1 23//1
f 57//1 160//1 59//1 60//1
f 61//1 62//1 65//1 24//1
f 63//1 66//1 67//1 64//1
f 68//1 69//1 70//1 71//1
f 72//1 74//1 75//1 73//1
f 76//1 77//1 82//1 25//1
f 79//1 83//1 26//1 80//1
f 84//1 85//1 86//1 87//1
f 88//1 89//1 27//1 90//1
f 184//1 91//1 28//1 92//1
f 93//1 96//1 94//1 95//1
f 183//1 97//1 29//1 98//1
f 182//1 99//1 100//1 30//1
f 181//1 102//1 103//1 101//1
f 105//1 180//1 106//1 104//1
f 179//1 178//1 107//1 31//1
f 108//1 109//1 32//1 110//1
f 111//1 112//1 114//1 33//1
f 115//1 177//1 116//1 113//1
f 118//1 119//1 121//1 117//1
f 122//1 123//1 124//1 120//1
f 125//1 176//1 126//1 127//1
f 128//1 175//1 130//1 129//1 35//1 34//1
f 131//1 132//1 134//1 36//1
f 196//1 195//1 136//1 133//1
f 135//1 194//1 139//1 137//1
f 193//1 192//1 140//1 138//1
f 141//1 191//1 142//1 143//1
f 190//1 146//1 145//1 144//1
f 147//1 150//1 148//1 149//1
f 151//1 152//1 38//1 37//1
f 189//1 188//1 154//1 153//1
f 155//1 187//1 156//1 157//1
f 203//1 197//1 159//1 198//1
f 197//1 199//1 185//1 159//1
f 199//1 200//1 201//1 185//1
o road_straight_5
v -3.809989 0.000000 -260.009155
v -3.857403 0.000000 -298.596344
v -3.949989 0.000000 -260.009491
v -3.689990 0.000000 -260.008850
v -3.597404 0.000000 -298.595734
v -3.717403 0.000000 -298.596008
v -0.060000 0.000000 -260.000153
v -0.054001 0.000000 -262.500122
v -0.046803 0.000000 -265.500122
v -0.039605 0.000000 -268.500122
v -0.032407 0.000000 -271.500122
v -0.018010 0.000000 -277.500092
v 0.017981 0.000000 -292.500061
v 0.032377 0.000000 -298.500031
v 0.032586 0.000000 -298.587006
v 0.080395 0.000000 -268.499817
v -0.025209 0.000000 -274.500092
v 0.101989 0.000000 -277.499817
v 0.109187 0.000000 -280.499786
v -0.010812 0.000000 -280.500092
v 0.116386 0.000000 -283.499786
v -0.003614 0.000000 -283.500061
v 0.123584 0.000000 -286.499786
v 0.130782 0.000000 -289.499786
v 0.010782 0.000000 -289.500061
v 0.003584 0.000000 -286.500061
v 0.137980 0.000000 -292.499756
v 0.145178 0.000000 -295.499756
v 0.152377 0.000000 -298.499756
v 0.025179 0.000000 -295.500031
v 0.439999 0.000000 -259.998932
v 0.152585 0.000000 -298.586731
v 0.094791 0.000000 -274.499817
v 0.087593 0.000000 -271.499817
v 0.073197 0.000000 -265.499847
v 0.065998 0.000000 -262.499847
v 0.060000 0.000000 -259.999847
v 0.532584 0.000000 -298.585815
v 0.699998 0.000000 -259.998322
v 0.792584 0.000000 -298.585205
v 0.652584 0.000000 -298.585541
v 0.559998 0.000000 -259.998657
vn 0.0000 1.0000 0.0000
usemtl road_asphalt
s off
f 207//2 212//2 208//2 209//2
f 213//2 214//2 215//2 216//2 217//2 223//2 218//2 226//2 228//2 232//2 231//2 219//2 236//2 220//2 221//2 211//2 210//2
f 242//2 241//2 215//2 214//2
f 222//2 240//2 217//2 216//2
f 239//2 224//2 218//2 223//2
f 225//2 227//2 228//2 226//2
f 229//2 230//2 231//2 232//2
f 233//2 234//2 236//2 219//2
f 235//2 238//2 221//2 220//2
f 237//2 244//2 238//2 235//2 234//2 233//2 230//2 229//2 227//2 225//2 224//2 239//2 240//2 222//2 241//2 242//2 243//2
f 245//2 246//2 247//2 248//2
usemtl road_mark
f 210//2 211//2 212//2 207//2
f 243//2 242//2 214//2 213//2
f 241//2 222//2 216//2 215//2
f 240//2 239//2 223//2 217//2
f 224//2 225//2 226//2 218//2
f 227//2 229//2 232//2 228//2
f 230//2 233//2 219//2 231//2
f 234//2 235//2 220//2 236//2
f 248//2 247//2 244//2 237//2
